<svg xmlns="http://www.w3.org/2000/svg" version="1.1" xmlns:xlink="http://www.w3.org/1999/xlink" xmlns:svgjs="http://svgjs.dev/svgjs" width="1500" height="1500" viewBox="0 0 1500 1500"><rect width="1500" height="1500" fill="#ffffff"></rect><g transform="matrix(0.6666666666666666,0,0,0.6666666666666666,249.39393939393938,564.6737635833309)"><svg viewBox="0 0 396 147" data-background-color="#003366" preserveAspectRatio="xMidYMid meet" height="556" width="1500" xmlns="http://www.w3.org/2000/svg" xmlns:xlink="http://www.w3.org/1999/xlink"><g id="tight-bounds" transform="matrix(1,0,0,1,0.2400000000000091,-0.0028145146123250697)"><svg viewBox="0 0 395.52 147.00562902922465" height="147.00562902922465" width="395.52"><g><svg viewBox="0 0 665.0938786878893 247.2" height="147.00562902922465" width="395.52"><g><svg viewBox="0 0 374.9912802768166 247.2" height="247.2" width="374.9912802768166"><g id="textblocktransform"><svg viewBox="0 0 374.9912802768166 247.2" height="247.2" width="374.9912802768166" id="textblock"><g><svg viewBox="0 0 374.9912802768166 247.2" height="247.2" width="374.9912802768166"><g transform="matrix(1,0,0,1,0,0)"><svg width="374.9912802768166" viewBox="3.1 -35.35 54.8 36.13" height="247.2" data-palette-color="#ffffff"><path d="M21.08-17.48L21.08-17.48Q21.08-21.28 20.38-23.63 19.68-25.98 18.49-27.23 17.3-28.48 15.76-28.93 14.23-29.38 12.55-29.38L12.55-29.38 10.08-29.38 10.08-5.18 12.58-5.18Q14.33-5.18 15.86-5.73 17.4-6.28 18.57-7.63 19.75-8.97 20.41-11.38 21.08-13.78 21.08-17.48ZM28.38-17.48L28.38-17.48Q28.38-12.15 26.99-8.72 25.6-5.3 23.25-3.4 20.9-1.5 17.98-0.75 15.05 0 11.98 0L11.98 0 3.1 0 3.1-34.58 11.4-34.58Q14.63-34.58 17.66-33.9 20.7-33.23 23.13-31.39 25.55-29.55 26.96-26.2 28.38-22.85 28.38-17.48ZM57.9-9.95L57.9-9.95Q57.9-6.8 56.28-4.39 54.67-1.98 51.62-0.6 48.57 0.78 44.27 0.78L44.27 0.78Q39.72 0.78 36.5-0.58 33.27-1.93 31.1-4.05L31.1-4.05 34.75-8.13Q36.62-6.45 38.95-5.51 41.27-4.58 44.17-4.58L44.17-4.58Q46-4.58 47.46-5.14 48.92-5.7 49.77-6.79 50.62-7.88 50.62-9.47L50.62-9.47Q50.62-10.88 50.03-11.85 49.45-12.83 48-13.59 46.55-14.35 43.95-15.13L43.95-15.13Q40.1-16.3 37.62-17.73 35.15-19.15 33.96-21.09 32.77-23.03 32.77-25.68L32.77-25.68Q32.77-28.68 34.44-30.84 36.1-33 38.92-34.18 41.75-35.35 45.25-35.35L45.25-35.35Q49.12-35.35 52.06-34.24 55-33.13 57.22-31.05L57.22-31.05 53.75-27.1Q51.97-28.63 49.92-29.35 47.87-30.08 45.72-30.08L45.72-30.08Q44.07-30.08 42.78-29.64 41.5-29.2 40.76-28.34 40.02-27.48 40.02-26.15L40.02-26.15Q40.02-24.93 40.7-24.08 41.37-23.23 43.03-22.5 44.7-21.78 47.6-20.88L47.6-20.88Q50.7-19.93 53.02-18.61 55.35-17.3 56.62-15.24 57.9-13.18 57.9-9.95Z" opacity="1" transform="matrix(1,0,0,1,0,0)" fill="#000000" class="wordmark-text-0" data-fill-palette-color="primary" id="text-0"></path></svg></g></svg></g></svg></g></svg></g><g transform="matrix(1,0,0,1,433.34926747681664,7.7276943944636685)"><svg viewBox="0 0 231.74461121107265 231.74461121107265" height="231.74461121107265" width="231.74461121107265"><g data-palette-color="#ff9966"><rect width="63.343527064359854" height="231.74461121107265" fill="#000000" stroke="transparent" data-fill-palette-color="accent" x="0" fill-opacity="1"></rect><rect width="63.343527064359854" height="231.74461121107265" fill="#000000" stroke="transparent" data-fill-palette-color="accent" x="77.24820373702421" fill-opacity="0.75"></rect><rect width="63.343527064359854" height="231.74461121107265" fill="#000000" stroke="transparent" data-fill-palette-color="accent" x="154.49640747404843" fill-opacity="0.5"></rect></g></svg></g></svg></g><defs></defs></svg><rect width="395.52" height="147.00562902922465" fill="none" stroke="none" visibility="hidden"></rect></g></svg></g></svg>